<svg id="Icon_lock_closed" xmlns="http://www.w3.org/2000/svg" width="16" height="18" viewBox="0 0 16 18">
  <path id="Fill_1" data-name="Fill 1" d="M14,12H2a2,2,0,0,1-2-2V2A2,2,0,0,1,2,0H14a2,2,0,0,1,2,2v8A2,2,0,0,1,14,12ZM3,2A1,1,0,0,0,2,3V9a1,1,0,0,0,1,1H13a1,1,0,0,0,1-1V3a1,1,0,0,0-1-1Z" transform="translate(0 6)" fill="#b1b1b1"/>
  <path id="Fill_2" data-name="Fill 2" d="M2.394,3.2A6.5,6.5,0,0,0,2,6,1,1,0,0,1,0,6q0-.04,0-.081A8.128,8.128,0,0,1,.606,2.3,3.849,3.849,0,0,1,2.2.626,5.689,5.689,0,0,1,5,0,5.689,5.689,0,0,1,7.8.626,3.849,3.849,0,0,1,9.394,2.3,8.128,8.128,0,0,1,10,5.919Q10,5.96,10,6A1,1,0,0,1,8,6a6.5,6.5,0,0,0-.394-2.8,1.85,1.85,0,0,0-.779-.823A3.729,3.729,0,0,0,5,2a3.729,3.729,0,0,0-1.827.374A1.85,1.85,0,0,0,2.394,3.2Z" transform="translate(3)" fill="#b1b1b1"/>
  <path id="Fill_3" data-name="Fill 3" d="M4,2A2,2,0,1,1,2,0,2,2,0,0,1,4,2Z" transform="translate(6 10)" fill="#b1b1b1"/>
</svg>
